<?xml version="1.0" standalone="no"?><!DOCTYPE svg PUBLIC "-//W3C//DTD SVG 1.1//EN" "http://www.w3.org/Graphics/SVG/1.1/DTD/svg11.dtd"><svg t="1612271557476" class="icon" viewBox="0 0 1024 1024" version="1.1" xmlns="http://www.w3.org/2000/svg" p-id="4458" xmlns:xlink="http://www.w3.org/1999/xlink" width="64" height="64"><defs><style type="text/css"></style></defs><path d="M252.586667 921.6c-20.48 0-34.133333-13.653333-34.133334-34.133333V204.8c0-58.026667 44.373333-102.4 102.4-102.4h409.6c58.026667 0 102.4 44.373333 102.4 102.4v648.533333c0 27.306667-13.653333 51.2-37.546666 61.44-23.893333 10.24-51.2 10.24-71.68-6.826666l-197.973334-150.186667-116.053333 88.746667c-13.653333 10.24-37.546667 6.826667-47.786667-6.826667-10.24-13.653333-6.826667-37.546667 6.826667-47.786667l119.466667-92.16c23.893333-17.066667 51.2-17.066667 75.093333-3.413333l201.386667 153.6V204.8c0-20.48-13.653333-34.133333-34.133334-34.133333h-409.6c-20.48 0-34.133333 13.653333-34.133333 34.133333v682.666667c0 20.48-13.653333 34.133333-34.133333 34.133333z m238.933333-512c0-20.48-13.653333-34.133333-34.133333-34.133333h-34.133334c-20.48 0-34.133333 13.653333-34.133333 34.133333s13.653333 34.133333 34.133333 34.133333h34.133334c20.48 0 34.133333-13.653333 34.133333-34.133333z m170.666667 0c0-20.48-13.653333-34.133333-34.133334-34.133333h-34.133333c-20.48 0-34.133333 13.653333-34.133333 34.133333s13.653333 34.133333 34.133333 34.133333h34.133333c20.48 0 34.133333-13.653333 34.133334-34.133333z m-102.4 102.4v-34.133333c0-20.48-13.653333-34.133333-34.133334-34.133334s-34.133333 13.653333-34.133333 34.133334v34.133333c0 20.48 13.653333 34.133333 34.133333 34.133333s34.133333-13.653333 34.133334-34.133333z m0-170.666667V307.2c0-20.48-13.653333-34.133333-34.133334-34.133333s-34.133333 13.653333-34.133333 34.133333v34.133333c0 20.48 13.653333 34.133333 34.133333 34.133334s34.133333-13.653333 34.133334-34.133334z" fill="#3E2AD1" p-id="4459"></path></svg>