<?xml version="1.0" standalone="no"?><!DOCTYPE svg PUBLIC "-//W3C//DTD SVG 1.1//EN" "http://www.w3.org/Graphics/SVG/1.1/DTD/svg11.dtd"><svg t="1612271229615" class="icon" viewBox="0 0 1024 1024" version="1.1" xmlns="http://www.w3.org/2000/svg" p-id="3574" xmlns:xlink="http://www.w3.org/1999/xlink" width="64" height="64"><defs><style type="text/css"></style></defs><path d="M622.2 64H64v832h511.8v-64H128V128h416v227h224v36l-0.1 184.4h64L832 391v-86.8L622.2 64zM608 145l127.5 146H608V145z" fill="#727272" p-id="3575"></path><path d="M832 960h-64V832H640v-64h128V640h64v128h128v64H832z" fill="#669E8B" p-id="3576"></path><path d="M192 256h64v64h-64zM192 384.8h64v64h-64zM192 512.4h64v64h-64zM192 639.9h64v64h-64z" fill="#E6C37C" p-id="3577"></path><path d="M320.5 384.8H704v64H320.5zM320.5 639.9h383.4v64H320.5zM320.5 511.9h383.4v64H320.5zM320.5 256h127.6v64H320.5z" fill="#5280C1" p-id="3578"></path></svg>