<?xml version="1.0" standalone="no"?><!DOCTYPE svg PUBLIC "-//W3C//DTD SVG 1.1//EN" "http://www.w3.org/Graphics/SVG/1.1/DTD/svg11.dtd"><svg t="1612273074573" class="icon" viewBox="0 0 1024 1024" version="1.1" xmlns="http://www.w3.org/2000/svg" p-id="15255" xmlns:xlink="http://www.w3.org/1999/xlink" width="64" height="64"><defs><style type="text/css"></style></defs><path d="M57.149792 35.547026m48.624285 0l813.607846 0q48.624286 0 48.624286 48.624286l0 558.276159q0 48.624286-48.624286 48.624285l-813.607846 0q-48.624286 0-48.624285-48.624285l0-558.276159q0-48.624286 48.624285-48.624286Z" fill="#FFFFFF" p-id="15256"></path><path d="M334.300995 710.07352h-234.812672a61.484795 61.484795 0 0 1-61.412545-61.412545v-570.775418a61.484795 61.484795 0 0 1 61.412545-61.412545h47.974035v38.075778h-47.974035a23.336767 23.336767 0 0 0-23.264517 23.336767v570.775418A23.336767 23.336767 0 0 0 99.488323 671.925492h234.812672z" fill="#0686D8" p-id="15257"></path><path d="M925.667678 710.07352h-99.777323V671.925492h99.777323a23.336767 23.336767 0 0 0 23.264517-23.336767v-570.775418a23.336767 23.336767 0 0 0-23.264517-23.336767H370.859522V16.473012h554.808156a61.484795 61.484795 0 0 1 61.412545 61.412545v570.775418a61.484795 61.484795 0 0 1-61.412545 61.412545z" fill="#0686D8" p-id="15258"></path><path d="M102.667325 300.84922h38.148028v124.775842h-38.148028z" fill="#0686D8" p-id="15259"></path><path d="M175.061878 91.613067h666.145488v543.392648h-666.145488z" fill="#D2E9F7" p-id="15260"></path><path d="M883.979397 405.973047a42.699781 42.699781 0 1 1 42.699782-42.699781 42.772031 42.772031 0 0 1-42.699782 42.699781z m0-47.323784a4.624003 4.624003 0 0 0-4.624003 4.624003c0 5.057504 9.248007 5.057504 9.248007 0a4.624003 4.624003 0 0 0-4.624004-4.624003z" fill="#0686D8" p-id="15261"></path><path d="M222.602413 774.954068m-21.097015 0a21.097015 21.097015 0 1 0 42.19403 0 21.097015 21.097015 0 1 0-42.19403 0Z" fill="#5FB0E5" p-id="15262"></path><path d="M78.246807 870.685388a21.097015 21.097015 0 1 1-21.097015-21.097016 21.097015 21.097015 0 0 1 21.097015 21.097016zM841.496366 944.669442a15.678261 15.678261 0 1 1-15.606011-15.606012 15.606011 15.606011 0 0 1 15.606011 15.606012z" fill="#5FB0E5" p-id="15263"></path><path d="M892.793904 796.123333m-28.033021 0a28.033021 28.033021 0 1 0 56.066041 0 28.033021 28.033021 0 1 0-56.066041 0Z" fill="#5FB0E5" p-id="15264"></path><path d="M371.293022 907.677415a36.992027 36.992027 0 1 1-36.992027-36.992027 36.992027 36.992027 0 0 1 36.992027 36.992027z" fill="#5FB0E5" p-id="15265"></path><path d="M269.492697 436.67932L195.653143 362.839766l72.972554-72.972554 26.949269 26.94927-46.023283 46.023284 46.890284 46.890284-26.94927 26.94927z" fill="#0686D8" p-id="15266"></path><path d="M744.320045 436.67932l-26.94927-26.94927 46.890285-46.890284-46.023284-46.023284 26.94927-26.94927 72.972553 72.972554-73.839554 73.839554z" fill="#0686D8" p-id="15267"></path><path d="M354.169759 253.019685h321.079236v220.434912H354.169759z" fill="#5FB0E5" p-id="15268"></path><path d="M694.323009 492.600861H335.095745V234.017921H694.323009zM373.243773 454.452833h283.003458V272.093699H373.243773z" fill="#0686D8" p-id="15269"></path><path d="M712.385522 552.279405a33.957525 33.957525 0 0 0-33.885275 33.885274v-35.547026a33.957525 33.957525 0 1 0-67.8428 0v-35.619276a33.957525 33.957525 0 0 0-67.842799 0V407.273548a33.885275 33.885275 0 1 0-67.77055 0v213.426657h-47.829535A22.903267 22.903267 0 0 0 404.600296 643.675721V794.750582a31.067523 31.067523 0 0 0 18.062514 28.249771l27.81627 12.788259a31.212023 31.212023 0 0 1 18.062513 28.249771v65.025047H693.600508v-73.695054a27.31052 27.31052 0 0 1 8.236506-19.579764L736.95054 801.975587a32.368024 32.368024 0 0 0 9.681507-23.192267V586.164679a33.957525 33.957525 0 0 0-34.246525-33.885274z" fill="#FFFFFF" p-id="15270"></path><path d="M492.600861 682.25725h-38.075778V407.273548a52.959289 52.959289 0 0 1 105.918577 0v225.131165h-38.148027V407.273548a14.883511 14.883511 0 1 0-29.694772 0z" fill="#0686D8" p-id="15271"></path><path d="M628.57546 572.94292h-38.437028v-57.800043a14.883511 14.883511 0 0 0-29.694772 0v57.800043h-38.148027v-57.800043a53.031539 53.031539 0 0 1 105.990827 0z" fill="#0686D8" p-id="15272"></path><path d="M696.05701 632.404713h-38.075778V550.617653A15.028011 15.028011 0 0 0 643.025471 535.734142a14.811261 14.811261 0 0 0-14.450011 14.883511v81.78706h-38.437028V550.617653a52.959289 52.959289 0 0 1 105.918578 0z" fill="#0686D8" p-id="15273"></path><path d="M711.446271 929.207931h-38.148028v-73.695054a46.818034 46.818034 0 0 1 13.94426-33.162775l34.535526-33.813024a13.29401 13.29401 0 0 0 3.973753-9.537007V586.164679a14.883511 14.883511 0 0 0-29.694772 0v32.006774h-38.075778v-32.006774a52.959289 52.959289 0 0 1 105.918577 0v192.835392a51.947788 51.947788 0 0 1-15.461511 36.847527l-34.535525 33.740774a8.308756 8.308756 0 0 0-2.456502 5.924505z" fill="#0686D8" p-id="15274"></path><path d="M485.809356 929.207931H447.950328v-65.025048a11.921259 11.921259 0 0 0-7.225005-10.909758l-27.816271-12.860509a50.575037 50.575037 0 0 1-28.900021-45.517534V643.675721a42.049531 42.049531 0 0 1 41.977281-42.04953h47.829535v38.148028h-48.046285a3.901503 3.901503 0 0 0-3.901503 3.901502V794.750582a11.993509 11.993509 0 0 0 7.225005 10.909758l27.816271 12.86051a50.575037 50.575037 0 0 1 28.900021 45.517533z" fill="#0686D8" p-id="15275"></path><path d="M436.75157 870.685388h288.494461v137.997601H436.75157z" fill="#5FB0E5" p-id="15276"></path><path d="M744.320045 1008.682989h-38.148028v-118.923587H455.825584v118.923587h-38.148028v-156.999365h326.642489v156.999365z" fill="#0686D8" p-id="15277"></path><path d="M206.765201 16.458562l104.141227-3.056177 1.119876 38.133578-104.141227 3.056177z" fill="#0686D8" p-id="15278"></path></svg>