<?xml version="1.0" standalone="no"?><!DOCTYPE svg PUBLIC "-//W3C//DTD SVG 1.1//EN" "http://www.w3.org/Graphics/SVG/1.1/DTD/svg11.dtd"><svg t="1612272480488" class="icon" viewBox="0 0 1024 1024" version="1.1" xmlns="http://www.w3.org/2000/svg" p-id="11047" xmlns:xlink="http://www.w3.org/1999/xlink" width="64" height="64"><defs><style type="text/css"></style></defs><path d="M781.71136 265.55904H237.16864a39.68 39.68 0 0 0-39.63392 39.7312V776.704a39.68 39.68 0 0 0 39.63392 39.7312h544.54272a39.68 39.68 0 0 0 39.6288-39.7312V305.29024a39.68 39.68 0 0 0-39.6288-39.7312z" fill="#64F4AF" p-id="11048"></path><path d="M828.01152 144.47616h-2.33472V87.04h-69.82144v57.43616h-118.0416V87.04h-69.81632v57.43616H449.95584V87.04H380.13952v57.43616H262.10304V87.04H192.28672v57.43616h-1.41824A114.30912 114.30912 0 0 0 76.8 258.77504v558.7712A114.304 114.304 0 0 0 190.86848 931.84h637.14304A114.304 114.304 0 0 0 942.08 817.54624V258.77504a114.30912 114.30912 0 0 0-114.06848-114.29888zM190.86848 214.43072h1.41824v29.9776h69.81632v-29.9776h118.03648v29.9776h69.81632v-29.9776h118.0416v29.9776h69.81632v-29.9776h118.0416v29.9776h69.82144v-29.9776h2.33472a44.34944 44.34944 0 0 1 44.25216 44.34432V333.312H146.61632V258.77504a44.34432 44.34432 0 0 1 44.25216-44.34432z m637.14304 647.45472H190.86848a44.34432 44.34432 0 0 1-44.25216-44.3392V403.27168h725.64736v414.27456a44.34432 44.34432 0 0 1-44.25216 44.3392z m-288.768-395.3152H469.44768v116.6848H352.99328v69.95456h116.4544v116.67968h69.81632V653.2096h116.46464v-69.95456h-116.46464v-116.6848z" fill="#242F44" p-id="11049"></path></svg>